<svg xmlns="http://www.w3.org/2000/svg" viewBox="0 0 32 32" id="code"><g data-name="Layer 2"><path d="M2 28a2 2 0 002 2H28a2 2 0 002-2V12H2zm17.293-8.293a1 1 0 011.414-1.414l2 2a1 1 0 010 1.414l-2 2a1 1 0 01-1.414-1.414L20.586 21zm-5.263 5.05l2-8a1 1 0 011.94.486l-2 8A1 1 0 0115 26a.976.976 0 01-.244-.03A1 1 0 0114.03 24.757zM9.293 20.293l2-2a1 1 0 011.414 1.414L11.414 21l1.293 1.293a1 1 0 11-1.414 1.414l-2-2A1 1 0 019.293 20.293zM28 2H4A2 2 0 002 4v6H30V4A2 2 0 0028 2zM7 7H6A1 1 0 016 5H7A1 1 0 017 7zm5 0H11a1 1 0 010-2h1a1 1 0 010 2z"></path></g></svg>